<?xml version="1.0" standalone="no"?>
<!DOCTYPE svg PUBLIC "-//W3C//DTD SVG 1.1//EN" "http://www.w3.org/Graphics/SVG/1.1/DTD/svg11.dtd" >
<svg xmlns="http://www.w3.org/2000/svg" xmlns:xlink="http://www.w3.org/1999/xlink" version="1.1">
<metadata>
Created by FontForge 20170731 at Fri Feb 20 20:03:06 2015
 By Aleksey,,,
(URW)++,Copyright 2014 by (URW)++ Design &#38; Development
</metadata>
<defs>
<font id="TrafficTypSweD" horiz-adv-x="1216" >
  <font-face 
    font-family="TrafficTypSweD"
    font-weight="400"
    font-stretch="normal"
    units-per-em="2048"
    panose-1="0 0 0 0 0 0 0 0 0 0"
    ascent="1536"
    descent="-512"
    x-height="980"
    cap-height="1365"
    bbox="-56 -403 2648 1837"
    underline-thickness="161"
    underline-position="-400"
    unicode-range="U+0020-2215"
  />
<missing-glyph horiz-adv-x="512" 
d="M51 0v1365h410v-1365h-410zM410 51v1263h-308v-1263h308z" />
    <glyph glyph-name="fi" unicode="fi" horiz-adv-x="1244" 
d="M641 980v-242h-148v-738h-243v738h-120v242h120v163q-7 203 207 205h184v-235h-46q-96 2 -102 -78v-55h148zM1084 980v-980h-243v980h243zM961 1380q61 0 105 -44.5t44 -106.5q0 -63 -44.5 -107.5t-107.5 -44.5t-107 44.5t-44 108.5q0 62 45 106t109 44z" />
    <glyph glyph-name="fl" unicode="fl" horiz-adv-x="1242" 
d="M641 980v-242h-148v-738h-243v738h-120v242h120v163q-7 203 207 205h184v-235h-46q-96 2 -102 -78v-55h148zM1078 1348v-1348h-243v1348h243z" />
    <glyph glyph-name=".notdef" horiz-adv-x="512" 
d="M51 0v1365h410v-1365h-410zM410 51v1263h-308v-1263h308z" />
    <glyph glyph-name="glyph1" horiz-adv-x="0" 
 />
    <glyph glyph-name="glyph2" horiz-adv-x="512" 
 />
    <glyph glyph-name="space" unicode=" " horiz-adv-x="512" 
 />
    <glyph glyph-name="exclam" unicode="!" horiz-adv-x="643" 
d="M466 1365l-37 -960h-215l-36 960h288zM324 302q64 0 110 -46.5t46 -111.5q0 -71 -52 -117q-46 -41 -106 -41q-66 0 -112 46.5t-46 112.5t47 111.5t113 45.5z" />
    <glyph glyph-name="quotedbl" unicode="&#x22;" horiz-adv-x="565" 
d="M231 819h-177l-13 546h203zM510 819h-176l-13 546h203z" />
    <glyph glyph-name="numbersign" unicode="#" horiz-adv-x="904" 
d="M368 565l-73 -318h-127l73 318h-173l29 125h173l32 140h-173l30 129h173l62 270h126l-62 -270h122l62 270h127l-61 -270h127l-29 -129h-128l-32 -140h127l-28 -125h-128l-73 -318h-128l73 318h-121zM397 690h121l33 140h-122z" />
    <glyph glyph-name="dollar" unicode="$" 
d="M731 1118v-310q127 -37 203 -84q81 -50 124 -138q44 -88 44 -189q0 -158 -99.5 -266t-271.5 -136v-147h-246v152q-202 38 -376 214l179 165q101 -93 197 -125v371q-178 56 -232 100q-58 47 -93 121t-35 151q0 137 99 240t261 132v129h246v-129q205 -33 354 -169
l-169 -183q-88 75 -185 101zM485 1117q-110 -38 -110 -122q0 -40 23.5 -64.5t80.5 -44.5l6 -2v233zM731 245q126 34 126 149q0 59 -29.5 96t-96.5 63v-308z" />
    <glyph glyph-name="percent" unicode="%" horiz-adv-x="1889" 
d="M1240 1374l-414 -1374h-161l415 1374h160zM1471 827q67 0 132.5 -28.5t112.5 -77.5q105 -111 105 -312q0 -199 -105 -311q-101 -106 -249 -106t-249 106q-105 112 -105 310q0 203 105 313q102 106 253 106zM1467 679q-95 0 -151 -72t-56 -194q0 -136 62 -209
q54 -64 145 -64q96 0 151.5 72.5t55.5 196.5q0 133 -62 206q-55 64 -145 64zM426 1377q143 0 244 -106q105 -111 105 -312q0 -199 -105 -311q-101 -106 -248 -106q-148 0 -249 106q-105 112 -105 310q0 202 105 313q102 106 253 106zM422 1229q-96 0 -151.5 -71.5
t-55.5 -193.5q0 -137 61 -210q55 -64 146 -64q96 0 151 72.5t55 197.5q0 132 -61 204q-55 65 -145 65z" />
    <glyph glyph-name="ampersand" unicode="&#x26;" horiz-adv-x="1292" 
d="M1087 983v-157h123v-246h-123v-580h-538q-101 0 -163 23q-128 48 -201 152q-77 109 -77 240q0 169 140 310q-50 77 -69 133.5t-19 125.5q0 188 160 305q105 76 243 76h337v-246h-299q-95 0 -139 -31q-60 -42 -60 -115q0 -72 51 -109.5t148 -37.5h240v157h246zM841 246
v334h-254q-77 0 -107.5 -7.5t-61.5 -34.5q-60 -51 -60 -123q0 -90 68 -137q47 -32 153 -32h262z" />
    <glyph glyph-name="quotesingle" unicode="'" horiz-adv-x="287" 
d="M233 819h-179l-13 546h205z" />
    <glyph glyph-name="parenleft" unicode="(" horiz-adv-x="745" 
d="M395 1435l216 -125q-112 -213 -157 -380t-45 -369q0 -204 45 -371t157 -381l-216 -124q-85 153 -130 275q-49 134 -77.5 295.5t-28.5 304.5q0 229 58 444t178 431z" />
    <glyph glyph-name="parenright" unicode=")" horiz-adv-x="745" 
d="M350 -315l-216 124q112 214 157 380.5t45 369.5t-45 370t-157 381l216 125q85 -154 130 -276q49 -133 77.5 -295t28.5 -304t-28.5 -304.5t-77.5 -295.5q-45 -122 -130 -275z" />
    <glyph glyph-name="asterisk" unicode="*" horiz-adv-x="649" 
d="M396 1365v-178l168 49l50 -142l-153 -55l91 -131l-133 -88l-88 142l-92 -143l-132 88l91 132l-164 56l47 141l168 -49v178h147z" />
    <glyph glyph-name="plus" unicode="+" horiz-adv-x="1035" 
d="M593 1070v-345h360v-154h-360v-374h-153v374h-358v154h358v345h153z" />
    <glyph glyph-name="comma" unicode="," horiz-adv-x="571" 
d="M406 304v-621h-242v621h242z" />
    <glyph glyph-name="hyphen" unicode="-" horiz-adv-x="454" 
d="M455 597v-226h-455v226h455z" />
    <glyph glyph-name="period" unicode="." horiz-adv-x="633" 
d="M319 302q64 0 110 -46.5t46 -111.5q0 -71 -52 -117q-46 -41 -106 -41q-66 0 -112 46.5t-46 112.5t47 111.5t113 45.5z" />
    <glyph glyph-name="slash" unicode="/" horiz-adv-x="514" 
d="M514 1365l-319 -1642h-222l322 1642h219z" />
    <glyph glyph-name="zero" unicode="0" horiz-adv-x="1403" 
d="M709 1379q154 0 296 -88q286 -177 286 -609q0 -333 -175 -518q-81 -86 -195 -133q-107 -45 -219 -45q-162 0 -305 88q-285 177 -285 606q0 338 175 521q170 178 422 178zM702 1133q-151 0 -242 -108q-102 -120 -102 -336q0 -228 102 -349q90 -108 242 -108q151 0 241 108
q102 121 102 343t-102 342q-91 108 -241 108z" />
    <glyph glyph-name="one" unicode="1" horiz-adv-x="658" 
d="M492 1365v-1365h-243v970h-150v149l205 246h188z" />
    <glyph glyph-name="two" unicode="2" horiz-adv-x="1266" 
d="M1114 243v-243h-979q1 121 15.5 193t52.5 148q45 88 93 137.5t144 109.5q120 74 222 121q125 59 167 102.5t42 114.5q0 91 -64 142t-178 51q-115 0 -178.5 -48.5t-67.5 -140.5h-245q9 168 99 275q135 160 387 160q141 0 250 -50t170 -142q74 -113 74 -245
q0 -109 -41 -194q-39 -81 -111 -129q-58 -40 -148 -85q-219 -109 -290 -159.5t-100 -117.5h686z" />
    <glyph glyph-name="three" unicode="3" horiz-adv-x="1204" 
d="M427 613v225h165q92 0 136 40q49 45 49 106q0 70 -61 111.5t-164 41.5q-77 0 -134.5 -21t-126.5 -74l-161 175q90 74 174 109q118 49 249 49q213 0 340 -110q126 -110 126 -287q0 -131 -83 -237q64 -70 89 -118q46 -86 46 -192q0 -147 -83 -255q-66 -88 -192 -138
q-125 -49 -248 -49q-280 0 -468 210l176 160q75 -69 142.5 -98.5t152.5 -29.5q138 0 218 67q69 58 69 143q0 99 -81 147q-26 15 -59.5 20t-113.5 5h-157z" />
    <glyph glyph-name="four" unicode="4" horiz-adv-x="1316" 
d="M1015 870v-312h174v-249h-174v-309h-243v309h-675v222l608 834h299l-588 -807h356v183z" />
    <glyph glyph-name="five" unicode="5" horiz-adv-x="1179" 
d="M994 1365v-243h-534l-55 -257q100 20 161 20q200 0 338 -116q75 -62 116 -151q42 -89 42 -184q0 -87 -34.5 -170t-94.5 -142q-135 -132 -359 -132q-159 0 -285 63q-65 33 -175 126l172 169q69 -62 133.5 -88.5t146.5 -26.5q111 0 180 55.5t69 143.5q0 91 -62 143
q-73 62 -194 62q-75 0 -133 -22.5t-116 -74.5l-207 106l159 719h732z" />
    <glyph glyph-name="six" unicode="6" horiz-adv-x="1254" 
d="M590 1365h351q-338 -250 -444 -504q83 14 135 14q197 0 349 -111q72 -53 116 -134q49 -92 49 -201q0 -175 -127 -296q-150 -143 -386 -143q-226 0 -376 127q-67 58 -105 139q-41 89 -41 183q0 145 59 313.5t164 323.5t256 289zM630 641q-99 0 -179 -46q-97 -55 -97 -158
q0 -90 73 -146q81 -62 203 -62q140 0 224 77q56 52 56 126q0 100 -82 154q-83 55 -198 55z" />
    <glyph glyph-name="seven" unicode="7" horiz-adv-x="1179" 
d="M1058 1365v-215l-476 -1150h-271l466 1122h-678v243h959z" />
    <glyph glyph-name="eight" unicode="8" horiz-adv-x="1254" 
d="M252 746q-80 130 -80 241q0 161 130 274q131 114 325 114q203 0 333 -114q125 -111 125 -272q0 -113 -84 -243q149 -142 149 -314q0 -138 -90 -251q-81 -103 -232 -155q-102 -36 -202 -36q-196 0 -353 114q-76 55 -121 139q-49 90 -49 189q0 185 149 314zM570 856h113
q64 0 97 21q58 38 58 107q0 65 -57.5 103.5t-154.5 38.5q-99 0 -155 -39q-56 -40 -56 -103q0 -69 58 -107q33 -21 97 -21zM692 600h-131q-107 0 -154 -37q-61 -49 -61 -131q0 -86 80 -142.5t200 -56.5q113 0 188 49q93 61 93 150t-70 137q-45 31 -145 31z" />
    <glyph glyph-name="nine" unicode="9" horiz-adv-x="1254" 
d="M671 0h-352q289 182 442 499q-71 -15 -131 -15q-196 0 -343 104q-177 124 -177 337q0 180 131 306q152 145 389 145q215 0 364 -122q69 -56 108 -134q41 -83 41 -171q0 -158 -74 -369q-65 -184 -154.5 -314.5t-243.5 -265.5zM629 1134q-124 0 -204 -63q-71 -56 -71 -142
q0 -108 94 -160q79 -44 187 -44q115 0 196 59q75 55 75 143q0 95 -81 152q-77 55 -196 55z" />
    <glyph glyph-name="colon" unicode=":" horiz-adv-x="633" 
d="M320 302q63 0 109 -46.5t46 -111.5q0 -71 -52 -117q-46 -41 -106 -41q-66 0 -112 46.5t-46 112.5t47 111.5t114 45.5zM312 990q64 0 110 -46.5t46 -111.5q0 -71 -52 -117q-45 -41 -106 -41q-66 0 -112 46.5t-46 112.5t47 111.5t113 45.5z" />
    <glyph glyph-name="semicolon" unicode=";" horiz-adv-x="619" 
d="M433 304v-621h-242v621h242zM312 990q64 0 110 -46.5t46 -111.5q0 -71 -52 -117q-45 -41 -106 -41q-66 0 -112 46.5t-46 112.5t47 111.5t113 45.5z" />
    <glyph glyph-name="less" unicode="&#x3c;" horiz-adv-x="905" 
d="M82 777l742 341v-177l-550 -247l550 -247v-176l-742 340v166z" />
    <glyph glyph-name="equal" unicode="=" horiz-adv-x="1035" 
d="M953 569v-154h-871v154h871zM953 887v-154h-871v154h871z" />
    <glyph glyph-name="greater" unicode="&#x3e;" horiz-adv-x="905" 
d="M824 777v-166l-742 -340v176l550 247l-550 247v177z" />
    <glyph glyph-name="question" unicode="?" horiz-adv-x="950" 
d="M523 374h-245v44q0 96 22 150q26 67 188 237q73 77 104 113q49 56 49 108q0 63 -75.5 100t-204.5 37q-140 0 -250 -43v235q127 31 275 31q242 0 387 -92q150 -94 150 -259q0 -79 -39.5 -148t-139.5 -165q-156 -150 -183 -191q-38 -57 -38 -127v-30zM399 302
q64 0 110 -46.5t46 -111.5q0 -71 -52 -117q-46 -41 -106 -41q-66 0 -112 46.5t-46 112.5t47 111.5t113 45.5z" />
    <glyph glyph-name="at" unicode="@" horiz-adv-x="1545" 
d="M1231 310l106 -67q-72 -83 -114 -118q-79 -66 -189.5 -103.5t-227.5 -37.5q-205 0 -371 106q-158 100 -241 272q-67 139 -67 296q0 194 98 358q88 146 235 233q161 95 351 95q156 0 294 -68q165 -82 248 -230q65 -117 65 -259q0 -235 -174 -381q-127 -106 -249 -106
q-60 0 -96 30.5t-42 86.5q-105 -114 -225 -114q-90 0 -147 66.5t-57 173.5q0 155 91 295q59 92 135 141.5t157 49.5q121 0 170 -116l38 84l128 1l-166 -482q-19 -55 -19 -77q0 -44 52 -44q86 0 172 91q114 121 114 293q0 205 -155 332q-141 115 -329 115q-159 0 -291 -83
q-116 -72 -183 -193q-74 -132 -74 -292q0 -229 148 -387q153 -164 381 -164q263 0 434 203zM863 598l37 109q21 61 21 97q0 52 -31.5 89.5t-75.5 37.5q-88 0 -165 -110q-87 -123 -87 -275q0 -67 29 -106t78 -39q68 0 122 58q39 42 72 139z" />
    <glyph glyph-name="A" unicode="A" horiz-adv-x="1390" 
d="M422 250l-78 -250h-264l430 1365h369l427 -1365h-260l-79 250h-545zM500 496h389l-194 620z" />
    <glyph glyph-name="B" unicode="B" horiz-adv-x="1241" 
d="M162 0v1365h525q154 0 266 -95q136 -116 136 -286q0 -69 -19 -125.5t-69 -133.5q140 -141 140 -310q0 -100 -46 -190t-127 -147q-65 -45 -121 -61.5t-147 -16.5h-538zM408 826h240q104 0 147 37q52 43 52 110q0 72 -50.5 109t-148.5 37h-240v-293zM408 246h262
q114 0 162 39q59 48 59 130q0 79 -70 131q-29 22 -57.5 28t-101.5 6h-254v-334z" />
    <glyph glyph-name="C" unicode="C" horiz-adv-x="1192" 
d="M1076 1233l-165 -186q-107 83 -217 83q-105 0 -192 -66q-150 -114 -150 -381q0 -223 108 -345q40 -46 104.5 -74.5t127.5 -28.5q110 0 212 81l167 -187q-81 -63 -142 -91q-111 -52 -230 -52q-151 0 -290 81q-159 92 -235 268q-68 157 -68 358q0 319 175 508
q167 178 412 178q112 0 201.5 -34t181.5 -112z" />
    <glyph glyph-name="D" unicode="D" horiz-adv-x="1303" 
d="M162 0v1365h463q138 0 222 -36q168 -71 258 -243q98 -188 98 -410q0 -220 -99 -403q-87 -160 -250 -235q-83 -38 -205 -38h-487zM408 246h237q135 0 219 112q42 55 67.5 143.5t25.5 178.5q0 149 -64 274q-47 92 -107 128.5t-164 36.5h-214v-873z" />
    <glyph glyph-name="E" unicode="E" horiz-adv-x="1030" 
d="M407 1119v-272h407v-246h-407v-355h497v-246h-743v1365h740v-246h-494z" />
    <glyph glyph-name="F" unicode="F" horiz-adv-x="993" 
d="M406 1119v-272h410v-246h-410v-601h-246v1365h743v-246h-497z" />
    <glyph glyph-name="G" unicode="G" horiz-adv-x="1378" 
d="M690 733h567v-179q0 -113 -27 -194q-55 -165 -225 -279q-141 -95 -313 -95q-224 0 -387 150q-212 193 -212 552q0 322 175 509q88 95 210 143q101 39 210 39q136 0 246.5 -52t202.5 -158l-192 -163q-98 128 -254 128q-78 0 -150.5 -36.5t-115.5 -97.5q-82 -119 -82 -317
q0 -228 115 -352q42 -46 105.5 -72.5t130.5 -26.5q137 0 234 95q37 36 53 70t22 90h-313v246z" />
    <glyph glyph-name="H" unicode="H" horiz-adv-x="1316" 
d="M411 844h494v521h246v-1365h-246v598h-494v-598h-246v1365h246v-521z" />
    <glyph glyph-name="I" unicode="I" horiz-adv-x="571" 
d="M409 1365v-1365h-246v1365h246z" />
    <glyph glyph-name="J" unicode="J" horiz-adv-x="757" 
d="M589 1365v-929q0 -114 -15.5 -175t-57.5 -115q-114 -146 -333 -146h-84v246h73q108 0 144 47q19 26 22.5 49t4.5 131v892h246z" />
    <glyph glyph-name="K" unicode="K" horiz-adv-x="1278" 
d="M403 1365v-542l434 542h316l-441 -550l455 -815h-275l-347 609l-142 -177v-432h-246v1365h246z" />
    <glyph glyph-name="L" unicode="L" horiz-adv-x="931" 
d="M403 1365v-1119h439v-246h-685v1365h246z" />
    <glyph glyph-name="M" unicode="M" horiz-adv-x="1514" 
d="M754 555l-343 480v-1035h-246v1365h307l282 -392l281 392h312v-1365h-246v1035z" />
    <glyph glyph-name="N" unicode="N" horiz-adv-x="1378" 
d="M1215 1365v-1365h-274l-534 904v-904h-246v1365h270l538 -922v922h246z" />
    <glyph glyph-name="O" unicode="O" horiz-adv-x="1403" 
d="M696 1379q242 0 412 -170q187 -188 187 -526t-187 -527q-169 -170 -411 -170q-241 0 -406 170q-99 103 -140 231q-43 135 -43 306q0 331 183 516q169 170 405 170zM696 1131q-68 0 -132 -29.5t-107 -80.5q-96 -115 -96 -332q0 -229 96 -345q43 -51 107 -80.5t133 -29.5
q68 0 134 30t111 80q100 114 100 339q0 223 -100 338q-44 50 -111 80t-135 30z" />
    <glyph glyph-name="P" unicode="P" horiz-adv-x="1167" 
d="M407 560v-560h-246v1365h458q118 0 184 -17.5t126 -64.5q74 -58 116 -144.5t42 -180.5q0 -126 -71 -230q-63 -91 -149 -129.5t-227 -38.5h-233zM407 806h229q105 0 144 29q60 44 60 122q0 94 -77 138q-43 24 -133 24h-223v-313z" />
    <glyph glyph-name="Q" unicode="Q" horiz-adv-x="1403" 
d="M1098 147l136 -252h-276l-68 124q-97 -33 -195 -33q-239 0 -404 170q-183 189 -183 527q0 337 183 526q165 170 405 170q243 0 412 -170q102 -103 143 -230q44 -137 44 -301q0 -175 -46.5 -301t-150.5 -230zM971 382q71 110 71 303q0 222 -100 336q-45 51 -111 80.5
t-135 29.5q-67 0 -131.5 -29.5t-107.5 -80.5q-96 -116 -96 -338q0 -223 96 -339q43 -51 107.5 -80.5t133.5 -29.5q33 0 69 9l-61 111l215 119z" />
    <glyph glyph-name="R" unicode="R" 
d="M405 560v-560h-246v1365h495q171 0 282 -86q150 -116 150 -314q0 -136 -71 -233.5t-210 -152.5l313 -579h-276l-307 560h-130zM405 806h242q80 0 128 35q65 48 65 121q0 77 -50.5 117t-147.5 40h-237v-313z" />
    <glyph glyph-name="S" unicode="S" 
d="M1085 1199l-169 -182q-137 116 -307 116q-108 0 -170.5 -37.5t-62.5 -101.5q0 -60 64 -93q36 -18 294 -95q175 -52 250 -121q55 -49 86.5 -126.5t31.5 -162.5q0 -203 -161 -320q-125 -90 -315 -90q-152 0 -275.5 54.5t-241.5 173.5l179 165q87 -80 164 -113.5t174 -33.5
q100 0 162 37q69 41 69 125q0 37 -17 72.5t-43 53.5q-46 31 -247 86q-149 41 -219 73t-113 79q-42 46 -67 111t-25 127q0 76 34.5 147.5t96.5 122.5q136 113 350 113q137 0 259.5 -46t218.5 -134z" />
    <glyph glyph-name="T" unicode="T" horiz-adv-x="1043" 
d="M645 1120v-1120h-246v1120h-311v245h867v-245h-310z" />
    <glyph glyph-name="U" unicode="U" horiz-adv-x="1316" 
d="M162 1365h246v-853q0 -123 64 -195q77 -85 186 -85q120 0 198 99q52 68 52 181v853h246v-873q0 -185 -103 -315q-75 -94 -183 -145q-100 -46 -210 -46q-154 0 -282 88q-214 148 -214 418v873z" />
    <glyph glyph-name="V" unicode="V" horiz-adv-x="1390" 
d="M1308 1365l-424 -1365h-368l-434 1365h258l356 -1131l353 1131h259z" />
    <glyph glyph-name="W" unicode="W" horiz-adv-x="1862" 
d="M1059 1365l230 -1131l206 1131h258l-284 -1365h-368l-170 857l-171 -857h-367l-284 1365h258l206 -1131l230 1131h256z" />
    <glyph glyph-name="X" unicode="X" horiz-adv-x="1278" 
d="M784 683l390 -683h-296l-238 425l-238 -425h-290l385 680l-385 685h283l246 -431l244 431h279z" />
    <glyph glyph-name="Y" unicode="Y" horiz-adv-x="1192" 
d="M1125 1365l-403 -734v-631h-246v631l-410 734h281l249 -450l247 450h282z" />
    <glyph glyph-name="Z" unicode="Z" horiz-adv-x="1179" 
d="M1051 1365v-235l-618 -884h618v-246h-931v241l622 878h-622v246h931z" />
    <glyph glyph-name="bracketleft" unicode="[" horiz-adv-x="522" 
d="M150 -307v1713h344v-204h-117v-1305h117v-204h-344z" />
    <glyph glyph-name="backslash" unicode="\" horiz-adv-x="579" 
d="M-39 1365h215l396 -1642h-218z" />
    <glyph glyph-name="bracketright" unicode="]" horiz-adv-x="522" 
d="M371 -307h-344v204h117v1305h-117v204h344v-1713z" />
    <glyph glyph-name="asciicircum" unicode="^" horiz-adv-x="959" 
d="M480 1112l-189 -393h-209l332 649h131l332 -649h-209z" />
    <glyph glyph-name="underscore" unicode="_" horiz-adv-x="1051" 
d="M14 -79h1024v-161h-1024v161z" />
    <glyph glyph-name="grave" unicode="`" horiz-adv-x="582" 
d="M3 1347h257l145 -261h-215z" />
    <glyph glyph-name="a" unicode="a" 
d="M1055 980v-980h-243v66q-116 -90 -250 -90q-116 0 -218 64q-105 65 -159 187q-53 120 -53 265q0 255 156 398q116 107 277 107q71 0 126.5 -19.5t120.5 -67.5v70h243zM812 408v163q0 84 -56 140.5t-140 56.5q-92 0 -149 -65q-72 -83 -72 -217q0 -131 66 -205
q59 -66 151 -66q81 0 140.5 57t59.5 136z" />
    <glyph glyph-name="b" unicode="b" 
d="M161 1348h243v-438q119 80 245 80q161 0 273 -105q153 -144 153 -393q0 -109 -32.5 -206t-90.5 -161q-55 -62 -134.5 -97t-163.5 -35q-134 0 -250 87v-80h-243v1348zM404 564v-156q0 -80 57.5 -136.5t139.5 -56.5q93 0 152 66q69 77 69 205q0 132 -72 214q-57 64 -149 64
q-90 0 -144 -67q-53 -65 -53 -133z" />
    <glyph glyph-name="c" unicode="c" horiz-adv-x="1018" 
d="M890 908l-146 -202q-59 45 -133 45q-108 0 -177 -86q-60 -76 -60 -177q0 -117 72 -193q65 -70 167 -70q58 0 131 43l146 -190q-123 -92 -279 -92q-191 0 -328 134q-72 70 -112 166t-40 198q0 140 73 276q69 128 197 189q99 48 210 48q77 0 139 -20t140 -69z" />
    <glyph glyph-name="d" unicode="d" 
d="M1055 1348v-1348h-243v77q-116 -87 -250 -87q-84 0 -163.5 35.5t-135.5 97.5q-58 65 -90 162t-32 207q0 249 153 393q112 105 270 105q71 0 127 -20.5t121 -69.5v448h243zM812 408v170q0 75 -58.5 130.5t-137.5 55.5q-94 0 -152 -64q-74 -82 -74 -213q0 -128 70 -203
q61 -65 151 -65q82 0 141.5 56t59.5 133z" />
    <glyph glyph-name="e" unicode="e" horiz-adv-x="1179" 
d="M1051 435h-690q17 -79 60 -128q69 -77 176 -77q58 0 103.5 16t116.5 60l140 -193q-166 -123 -376 -123q-189 0 -324 139q-68 70 -106.5 166.5t-38.5 197.5q0 196 125 340q138 161 349 161q107 0 202 -44t161 -124q39 -49 70.5 -132.5t31.5 -140.5v-118zM794 595
q-20 83 -64 122q-61 55 -144 55q-80 0 -136 -46t-79 -131h423z" />
    <glyph glyph-name="f" unicode="f" horiz-adv-x="770" 
d="M641 980v-242h-148v-738h-243v738h-120v242h120v163q-7 203 207 205h184v-235h-46q-96 2 -102 -78v-55h148z" />
    <glyph glyph-name="g" unicode="g" horiz-adv-x="1192" 
d="M1023 980v-951q0 -88 -15 -139q-80 -265 -455 -265q-190 0 -380 72l106 206q141 -66 275 -66q131 0 191 60q24 24 29.5 48t5.5 101v54q-116 -80 -247 -80q-163 0 -280 124q-128 136 -128 359q0 241 145 382q108 105 266 105q126 0 244 -80v70h243zM780 422v149
q0 72 -57.5 124.5t-136.5 52.5q-86 0 -139.5 -68.5t-53.5 -179.5q0 -122 60 -184q51 -54 131 -54q79 0 137.5 48t58.5 112z" />
    <glyph glyph-name="h" unicode="h" horiz-adv-x="1129" 
d="M409 1348v-415q104 61 203 61q147 0 246.5 -104t99.5 -258v-632h-243v570q0 91 -43 131q-47 43 -110 43q-66 0 -112 -52q-41 -45 -41 -90v-602h-243v1348h243z" />
    <glyph glyph-name="i" unicode="i" horiz-adv-x="571" 
d="M411 980v-980h-243v980h243zM288 1380q61 0 105 -44.5t44 -106.5q0 -63 -44.5 -107.5t-106.5 -44.5q-64 0 -108 44.5t-44 108.5q0 63 45 106.5t109 43.5z" />
    <glyph glyph-name="j" unicode="j" horiz-adv-x="633" 
d="M467 980v-938q0 -108 -24 -175q-77 -219 -354 -239v246q135 1 135 162v944h243zM343 1380q61 0 105 -44.5t44 -106.5q0 -63 -44.5 -107.5t-107.5 -44.5t-107 44.5t-44 108.5q0 62 45 106t109 44z" />
    <glyph glyph-name="k" unicode="k" horiz-adv-x="1192" 
d="M409 1348v-709l339 341h343l-408 -410l394 -570h-297l-273 392l-98 -98v-294h-243v1348h243z" />
    <glyph glyph-name="l" unicode="l" horiz-adv-x="571" 
d="M407 1348v-1348h-243v1348h243z" />
    <glyph glyph-name="m" unicode="m" horiz-adv-x="1614" 
d="M168 980h243v-46q94 60 183 60q151 0 259 -134q79 77 134.5 105.5t128.5 28.5q74 0 143.5 -33.5t114.5 -90.5q69 -86 69 -229v-641h-243v591q0 71 -30 111q-39 52 -107 52q-61 0 -99 -44.5t-38 -115.5v-594h-243v581q0 76 -27 114q-41 57 -114 57q-61 0 -96 -40.5
t-35 -110.5v-601h-243v980z" />
    <glyph glyph-name="n" unicode="n" horiz-adv-x="1117" 
d="M403 980v-41q104 55 201 55q151 0 252 -104t101 -258v-632h-243v570q0 92 -47 139q-47 45 -110 45q-67 0 -113 -56q-41 -48 -41 -96v-602h-243v980h243z" />
    <glyph glyph-name="o" unicode="o" horiz-adv-x="1217" 
d="M609 997q200 0 339 -145q66 -69 103 -165t37 -197t-37 -196t-103 -164q-138 -144 -339 -144q-202 0 -340 144q-140 147 -140 366q0 97 38 192.5t102 163.5q139 145 340 145zM609 750q-99 0 -165 -71q-69 -75 -69 -186q0 -117 69 -193q65 -71 165 -71q99 0 164 71
q69 76 69 190q0 112 -69 189q-64 71 -164 71z" />
    <glyph glyph-name="p" unicode="p" 
d="M162 980h243v-80q60 50 118.5 72t131.5 22q84 0 163.5 -35.5t134.5 -98.5q58 -65 90.5 -163t32.5 -209q0 -252 -153 -396q-112 -106 -272 -106q-127 0 -246 84v-439h-243v1349zM405 572v-170q0 -72 59 -128t135 -56q94 0 151 64q73 80 73 211q0 130 -69 206
q-60 66 -149 66q-81 0 -140.5 -57t-59.5 -136z" />
    <glyph glyph-name="q" unicode="q" 
d="M1052 980v-1349h-243v439q-118 -84 -246 -84q-160 0 -272 106q-153 144 -153 396q0 111 32.5 209t90.5 163q55 63 134.5 98.5t163.5 35.5q73 0 131.5 -22t118.5 -72v80h243zM809 402v170q0 60 -36 109q-62 84 -164 84q-89 0 -149 -66q-69 -76 -69 -206q0 -131 72 -211
q58 -64 152 -64q81 0 141 62q53 56 53 122z" />
    <glyph glyph-name="r" unicode="r" horiz-adv-x="844" 
d="M165 980h243v-71q135 80 281 80q38 0 89 -8v-248q-48 15 -78 15q-106 0 -186 -64q-106 -86 -106 -223v-461h-243v980z" />
    <glyph glyph-name="s" unicode="s" horiz-adv-x="1092" 
d="M957 859l-133 -198q-146 94 -263 94q-78 0 -123 -20.5t-45 -56.5q0 -28 17.5 -38t91.5 -26q241 -46 303 -71q72 -30 111 -83q55 -73 55 -170q0 -138 -107 -217q-117 -87 -318 -87q-229 0 -421 130l133 194q151 -89 288 -89q166 0 166 77q0 34 -37 51t-181 49
q-198 44 -266 101q-88 73 -88 194q0 134 107 215q102 76 290 76q127 0 217.5 -27t202.5 -98z" />
    <glyph glyph-name="t" unicode="t" horiz-adv-x="683" 
d="M435 1349v-369h123v-242h-123v-403q-5 -88 64 -92h37v-243h-148q-96 0 -149 57q-29 31 -38 62.5t-9 97.5v521h-99v242h99v247z" />
    <glyph glyph-name="u" unicode="u" horiz-adv-x="1117" 
d="M951 0h-243v48q-93 -62 -201 -62q-151 0 -252 104t-101 258v632h243v-570q0 -90 47 -136q47 -44 110 -44q67 0 113 54q41 48 41 94v602h243v-980z" />
    <glyph glyph-name="v" unicode="v" horiz-adv-x="1179" 
d="M459 0l-360 980h260l231 -629l231 629h259l-359 -980h-262z" />
    <glyph glyph-name="w" unicode="w" horiz-adv-x="1492" 
d="M866 980l149 -629l108 629h260l-237 -980h-262l-138 612l-138 -612h-262l-237 980h260l108 -629l149 629h240z" />
    <glyph glyph-name="x" unicode="x" horiz-adv-x="1179" 
d="M437 489l-338 491h300l189 -275l192 275h300l-342 -491l336 -489h-301l-187 272l-189 -272h-302z" />
    <glyph glyph-name="y" unicode="y" horiz-adv-x="1179" 
d="M1080 980l-494 -1345h-263l135 362l-358 983h259l232 -628l232 628h257z" />
    <glyph glyph-name="z" unicode="z" horiz-adv-x="1080" 
d="M935 980v-230l-454 -507h454v-243h-794v233l457 504h-454v243h791z" />
    <glyph glyph-name="braceleft" unicode="{" horiz-adv-x="574" 
d="M325 550q47 -33 65.5 -82.5t18.5 -144.5v-249q0 -115 33.5 -154.5t131.5 -41.5v-185h-90q-133 0 -183.5 14t-80.5 58q-45 67 -45 203v315q0 86 -21 130t-72 63v147q51 20 72 63.5t21 129.5v315q0 136 45 203q29 44 80 58t184 14h90v-185q-94 -1 -125 -34
q-40 -41 -40 -161v-250q0 -95 -18.5 -144.5t-65.5 -81.5z" />
    <glyph glyph-name="bar" unicode="|" horiz-adv-x="1051" 
d="M422 1365h207v-1706h-207v1706z" />
    <glyph glyph-name="braceright" unicode="}" horiz-adv-x="574" 
d="M248 550q-47 32 -65.5 81.5t-18.5 144.5v250q0 114 -33 153.5t-131 41.5v185h90q132 0 183 -14t80 -58q45 -67 45 -203v-315q0 -86 21 -129.5t73 -63.5v-147q-52 -20 -73 -63.5t-21 -129.5v-315q0 -136 -45 -203q-29 -44 -80 -58t-183 -14h-90v185q93 2 124 34
q40 42 40 162v249q0 95 18.5 144.5t65.5 82.5z" />
    <glyph glyph-name="asciitilde" unicode="~" horiz-adv-x="881" 
d="M111 1217l-56 139q85 120 214 120q62 0 188 -45q110 -40 158 -40q86 0 157 87l55 -139q-81 -119 -220 -119q-37 0 -69.5 8.5t-136.5 45.5q-87 31 -139 31q-80 0 -151 -88z" />
    <glyph glyph-name="nonbreakingspace" unicode="&#xa0;" horiz-adv-x="512" 
 />
    <glyph glyph-name="exclamdown" unicode="&#xa1;" horiz-adv-x="643" 
d="M466 -341h-288l36 959h215zM322 1038q66 0 112 -46t46 -112q0 -71 -52 -117q-45 -41 -104 -41q-72 0 -119 52q-41 45 -41 105q0 71 52 118q45 41 106 41z" />
    <glyph glyph-name="cent" unicode="&#xa2;" horiz-adv-x="1018" 
d="M454 1151v141h243v-123q90 -16 192 -82l-145 -201q-59 45 -134 45q-107 0 -176 -86q-60 -76 -60 -178q0 -117 72 -193q65 -70 166 -70q59 0 132 43l145 -190q-87 -65 -192 -84v-122h-243v141q-98 35 -171 107q-72 70 -112 166t-40 198q0 165 93 311q77 122 230 177z" />
    <glyph glyph-name="sterling" unicode="&#xa3;" horiz-adv-x="960" 
d="M430 843h132v-246h-132v-351h439v-246h-760v246h73v351h-73v246h73v216q0 135 61 209q97 117 285 117q181 0 280 -121q39 -48 51 -93.5t12 -143.5v-54h-233v41q0 68 -16 96q-24 43 -91 43q-55 0 -78 -31.5t-23 -107.5v-171z" />
    <glyph glyph-name="currency" unicode="&#xa4;" horiz-adv-x="1297" 
d="M98 223l184 188q-103 135 -103 291q0 140 105 287l-191 188l73 73l190 -189q83 59 148 82.5t145 23.5q79 0 143 -23.5t146 -81.5l191 188l72 -73l-188 -187q104 -139 104 -292q0 -77 -22 -140t-79 -147l188 -187l-72 -74l-189 188q-135 -104 -288 -104q-142 0 -298 104
l-187 -187zM654 1054q-161 0 -266 -117q-90 -100 -90 -232q0 -160 116 -265q100 -90 234 -90q156 0 260 116q90 100 90 236q0 155 -116 261q-99 91 -228 91z" />
    <glyph glyph-name="yen" unicode="&#xa5;" horiz-adv-x="1192" 
d="M722 0h-246v363h-381v222h381v46l-34 62h-347v222h222l-251 450h281l249 -449l248 449h281l-251 -450h222v-222h-346l-28 -50v-58h374v-222h-374v-363z" />
    <glyph glyph-name="brokenbar" unicode="&#xa6;" horiz-adv-x="1051" 
d="M422 1365h207v-676h-207v676zM422 314h207v-655h-207v655z" />
    <glyph glyph-name="section" unicode="&#xa7;" horiz-adv-x="1208" 
d="M202 833q-77 91 -77 199q0 69 35 134t96 111q138 102 351 102q280 0 478 -163l-174 -188q-133 109 -302 109q-109 0 -172 -29t-63 -79t65 -78q35 -15 294 -81q175 -45 250 -110q54 -47 86 -119t32 -148q0 -143 -96 -241q77 -91 77 -199q0 -69 -35 -134t-96 -111
q-138 -102 -351 -102q-280 0 -478 163l174 189q132 -110 302 -110q109 0 172 29t63 79t-65 78q-35 15 -294 81q-175 45 -250 110q-54 47 -86 119t-32 148q0 143 96 241zM766 377q90 35 90 112q0 58 -41 95t-129 59q-160 41 -245 66q-90 -36 -90 -113q0 -58 41 -95t129 -59
q159 -40 245 -65z" />
    <glyph glyph-name="dieresis" unicode="&#xa8;" horiz-adv-x="1089" 
d="M288 1372q60 0 103.5 -44t43.5 -105q0 -62 -43.5 -105.5t-105.5 -43.5t-105.5 44t-43.5 106t44 105t107 43zM805 1372q60 0 103.5 -44t43.5 -105t-43.5 -105t-105.5 -44t-105.5 44t-43.5 106t44 105t107 43z" />
    <glyph glyph-name="copyright" unicode="&#xa9;" horiz-adv-x="1660" 
d="M841 1386q180 0 340 -94q164 -97 258 -258q94 -162 94 -351q0 -188 -94 -351q-94 -164 -258 -258q-163 -94 -351 -94t-352 94q-163 95 -257 258q-94 164 -94 357q0 303 233 516q198 181 481 181zM839 1235q-253 0 -419 -183q-142 -157 -142 -365q0 -250 183 -414
q157 -142 369 -142q148 0 276 74q129 74 202 202q74 129 74 276q0 243 -183 410q-85 78 -195 113q-88 29 -165 29zM1099 1013l-100 -111q-64 49 -130 49q-101 0 -158 -85q-47 -71 -47 -183q0 -134 65 -208q54 -61 139 -61q67 0 128 49l99 -112q-109 -86 -223 -86
q-67 0 -133.5 28t-113.5 77q-109 114 -109 319q0 192 105 305q100 107 247 107q127 0 231 -88z" />
    <glyph glyph-name="ordfeminine" unicode="&#xaa;" horiz-adv-x="732" 
d="M650 705v-139h-554v139h554zM650 1380v-588h-146v40q-70 -54 -150 -54q-110 0 -183 82q-75 84 -75 227q0 152 94 238q70 65 166 65q75 0 148 -53v43h146zM504 1037v97q0 50 -33.5 84t-83.5 34q-59 0 -96 -47t-37 -121q0 -73 36 -118t94 -45q49 0 84.5 34t35.5 82z" />
    <glyph glyph-name="guillemotleft" unicode="&#xab;" horiz-adv-x="785" 
d="M525 826h178l-106 -340l106 -339h-178l-120 339zM204 826h177l-106 -340l106 -339h-177l-122 339z" />
    <glyph glyph-name="logicalnot" unicode="&#xac;" horiz-adv-x="1051" 
d="M773 0v401h-691v161h887v-562h-196z" />
    <glyph glyph-name="uni00AD" unicode="&#xad;" horiz-adv-x="454" 
d="M455 597v-226h-455v226h455z" />
    <glyph glyph-name="registered" unicode="&#xae;" horiz-adv-x="1660" 
d="M841 1386q180 0 340 -94q164 -97 258 -258q94 -162 94 -351q0 -188 -94 -351q-94 -164 -258 -258q-163 -94 -351 -94t-352 94q-163 95 -257 258q-94 164 -94 357q0 303 233 516q198 181 481 181zM839 1235q-253 0 -419 -183q-142 -157 -142 -365q0 -250 183 -414
q157 -142 369 -142q148 0 276 74q129 74 202 202q74 129 74 276q0 243 -183 410q-85 78 -195 113q-88 29 -165 29zM731 609v-336h-147v819h297q103 0 169 -51q90 -70 90 -189q0 -165 -169 -232l188 -347h-166l-184 336h-78zM731 756h145q53 0 85 26t32 68q0 95 -120 95h-142
v-189z" />
    <glyph glyph-name="macron" unicode="&#xaf;" horiz-adv-x="896" 
d="M760 1266v-160h-623v160h623z" />
    <glyph glyph-name="degree" unicode="&#xb0;" horiz-adv-x="730" 
d="M368 1297q-84 0 -140 -62q-48 -52 -48 -122q0 -84 61 -139q53 -48 125 -48q82 0 137 61q48 53 48 125q0 81 -62 137q-52 48 -121 48zM370 1382q115 0 196 -89q69 -77 69 -181q0 -120 -89 -201q-77 -69 -180 -69q-120 0 -201 89q-69 77 -69 183q0 117 89 199q76 69 185 69
z" />
    <glyph glyph-name="plusminus" unicode="&#xb1;" horiz-adv-x="1035" 
d="M593 1144v-345h360v-154h-360v-374h-153v374h-358v154h358v345h153zM953 154v-154h-871v154h871z" />
    <glyph glyph-name="twosuperior" unicode="&#xb2;" horiz-adv-x="726" 
d="M656 692v-146h-587q-1 123 41 205q35 69 94 116.5t181 104.5q75 35 100.5 61.5t25.5 68.5q0 54 -38.5 85t-106.5 31q-143 0 -149 -114h-147q6 101 60 165q81 96 232 96q177 0 252 -115q45 -68 45 -147q0 -66 -25 -117q-18 -38 -50.5 -65t-104.5 -63q-131 -65 -174 -95.5
t-61 -70.5h412z" />
    <glyph glyph-name="threesuperior" unicode="&#xb3;" horiz-adv-x="731" 
d="M276 914v135h99q52 0 81.5 23.5t29.5 64.5t-36.5 66t-98.5 25q-82 0 -157 -57l-96 105q115 95 253 95q129 0 204 -66q76 -66 76 -172q0 -79 -50 -142q46 -50 63.5 -90.5t17.5 -95.5q0 -134 -102 -203q-92 -62 -211 -62q-170 0 -281 126l106 96q83 -77 176 -77
q76 0 124 35t48 91q0 60 -49 88q-25 15 -103 15h-94z" />
    <glyph glyph-name="acute" unicode="&#xb4;" horiz-adv-x="582" 
d="M580 1347l-188 -261h-214l145 261h257z" />
    <glyph glyph-name="mu" unicode="&#xb5;" horiz-adv-x="1117" 
d="M397 3v-372h-243v1349h243v-570q0 -90 47 -136q47 -44 110 -44q67 0 113 54q41 48 41 94v602h243v-980h-243v48q-93 -62 -201 -62q-53 0 -110 17z" />
    <glyph glyph-name="paragraph" unicode="&#xb6;" horiz-adv-x="1086" 
d="M428 -287v929q-22 -1 -33 -1q-109 0 -197 52q-73 44 -114 121q-43 81 -43 180q0 101 43.5 185.5t119.5 129.5q92 56 259 56h541v-189h-88v-1463h-183v1463h-122v-1463h-183z" />
    <glyph glyph-name="periodcentered" unicode="&#xb7;" horiz-adv-x="633" 
d="M319 657q64 0 110 -46.5t46 -111.5q0 -71 -52 -117q-45 -41 -106 -41q-66 0 -112 46.5t-46 112.5t47 111.5t113 45.5z" />
    <glyph glyph-name="cedilla" unicode="&#xb8;" horiz-adv-x="560" 
d="M208 31h134v-79q126 -10 126 -129q0 -80 -60 -128t-160 -48q-56 0 -130 18l45 121q38 -9 65 -9q33 0 53 15.5t20 40.5q0 22 -23 37t-56 15q-5 0 -14 -1v147z" />
    <glyph glyph-name="onesuperior" unicode="&#xb9;" horiz-adv-x="370" 
d="M302 1365v-819h-146v582h-90v90l123 147h113z" />
    <glyph glyph-name="ordmasculine" unicode="&#xba;" horiz-adv-x="766" 
d="M671 705v-139h-575v139h575zM384 1390q120 0 203 -87q84 -88 84 -217t-84 -217q-83 -86 -203 -86q-121 0 -204 86q-84 89 -84 220q0 126 84 214q83 87 204 87zM384 1242q-60 0 -100.5 -44.5t-40.5 -110.5q0 -68 40 -113t101 -45q60 0 100 45t40 112q0 66 -40 111t-100 45
z" />
    <glyph glyph-name="guillemotright" unicode="&#xbb;" horiz-adv-x="785" 
d="M259 826l121 -340l-121 -339h-177l106 339l-106 340h177zM581 826l122 -340l-122 -339h-177l106 339l-106 340h177z" />
    <glyph glyph-name="onequarter" unicode="&#xbc;" horiz-adv-x="1307" 
d="M761 1374l-360 -1374h-161l361 1374h160zM302 1365v-819h-146v582h-90v90l123 147h113zM1161 522v-188h105v-149h-105v-185h-146v185h-404v133l364 501h179l-352 -485h213v110z" />
    <glyph glyph-name="onehalf" unicode="&#xbd;" horiz-adv-x="1335" 
d="M761 1374l-360 -1374h-161l361 1374h160zM302 1365v-819h-146v582h-90v90l123 147h113zM1252 146v-146h-587q1 127 41 205q35 69 94 116.5t181 104.5q75 35 100.5 61.5t25.5 68.5q0 54 -38.5 85t-106.5 31q-143 0 -149 -114h-147q6 101 60 165q81 96 232 96
q177 0 252 -115q45 -68 45 -147q0 -66 -25 -117q-18 -39 -51 -65.5t-104 -62.5q-132 -65 -174.5 -95.5t-60.5 -70.5h412z" />
    <glyph glyph-name="threequarters" unicode="&#xbe;" horiz-adv-x="1619" 
d="M1073 1374l-360 -1374h-160l360 1374h160zM1474 522v-188h104v-149h-104v-185h-146v185h-405v133l365 501h179l-353 -485h214v110zM249 914v135h99q52 0 81.5 23.5t29.5 64.5t-36.5 66t-98.5 25q-82 0 -157 -57l-96 105q115 95 253 95q129 0 204 -66q76 -66 76 -172
q0 -79 -50 -142q46 -50 63.5 -90.5t17.5 -95.5q0 -134 -102 -203q-92 -62 -211 -62q-170 0 -281 126l106 96q83 -77 176 -77q76 0 124 35t48 91q0 60 -49 88q-25 15 -103 15h-94z" />
    <glyph glyph-name="questiondown" unicode="&#xbf;" horiz-adv-x="948" 
d="M427 647h245v-44q0 -96 -22 -150q-27 -68 -187 -237q-74 -78 -105 -113q-49 -56 -49 -108q0 -26 20 -54t49 -44q76 -39 211 -39q140 0 250 43v-235q-126 -31 -275 -31q-242 0 -387 92q-150 94 -150 259q0 79 39.5 148t139.5 165q155 149 183 191q38 57 38 127v30z
M554 1035q66 0 112 -46.5t46 -112.5t-47 -111.5t-113 -45.5q-64 0 -110 46.5t-46 111.5q0 70 52 117q45 41 106 41z" />
    <glyph glyph-name="Agrave" unicode="&#xc0;" horiz-adv-x="1390" 
d="M422 250l-78 -250h-264l430 1365h369l427 -1365h-260l-79 250h-545zM500 496h389l-194 620zM403 1743h271l145 -261h-229z" />
    <glyph glyph-name="Aacute" unicode="&#xc1;" horiz-adv-x="1390" 
d="M422 250l-78 -250h-264l430 1365h369l427 -1365h-260l-79 250h-545zM500 496h389l-194 620zM999 1743l-187 -261h-228l144 261h271z" />
    <glyph glyph-name="Acircumflex" unicode="&#xc2;" horiz-adv-x="1390" 
d="M422 250l-78 -250h-264l430 1365h369l427 -1365h-260l-79 250h-545zM500 496h389l-194 620zM863 1743l155 -262h-265l-60 140l-59 -140h-265l154 262h340z" />
    <glyph glyph-name="Atilde" unicode="&#xc3;" horiz-adv-x="1390" 
d="M422 250l-78 -250h-264l430 1365h369l427 -1365h-260l-79 250h-545zM500 496h389l-194 620zM842 1728h180q-12 -240 -183 -240q-63 0 -140 50q-63 41 -93 41q-53 0 -58 -65h-183q7 114 42 167q52 77 150 77q69 0 153 -46q54 -29 81 -29q41 0 51 45z" />
    <glyph glyph-name="Adieresis" unicode="&#xc4;" horiz-adv-x="1390" 
d="M422 250l-78 -250h-264l430 1365h369l427 -1365h-260l-79 250h-545zM500 496h389l-194 620zM473 1762q60 0 103.5 -44t43.5 -106q0 -61 -44 -105t-105 -44q-63 0 -106.5 44t-43.5 107q0 62 44.5 105t107.5 43zM921 1762q59 0 101.5 -45t42.5 -107q0 -69 -49 -113
q-43 -39 -100 -39q-63 0 -106.5 44t-43.5 107q0 65 50 110q48 43 105 43z" />
    <glyph glyph-name="Aring" unicode="&#xc5;" horiz-adv-x="1390" 
d="M422 250l-78 -250h-264l430 1365h369l427 -1365h-260l-79 250h-545zM500 496h389l-194 620zM695 1692q-31 0 -52.5 -21t-21.5 -51q0 -31 21.5 -52.5t51.5 -21.5t51.5 21.5t21.5 51.5t-21.5 51.5t-50.5 21.5zM697 1837q93 0 159 -72q56 -63 56 -146q0 -98 -72 -163
q-63 -56 -146 -56q-98 0 -163 72q-56 62 -56 148q0 95 72 161q62 56 150 56z" />
    <glyph glyph-name="AE" unicode="&#xc6;" horiz-adv-x="1669" 
d="M512 491l-234 -491h-264l633 1365h893v-246h-494v-382h407v-246h-407v-245h497v-246h-743v491h-288zM630 737h170v356z" />
    <glyph glyph-name="Ccedilla" unicode="&#xc7;" horiz-adv-x="1192" 
d="M751 -11v-59q137 -13 137 -141q0 -87 -65.5 -139.5t-174.5 -52.5q-60 0 -141 19l49 132q42 -10 71 -10q35 0 57 17t22 44q0 24 -25 40.5t-60 16.5q-6 0 -16 -1v139q-134 25 -240 101q-127 89 -192 240q-68 157 -68 358q0 319 176 508q166 178 411 178q113 0 202.5 -34
t181.5 -112l-166 -186q-106 83 -216 83q-106 0 -193 -66q-150 -114 -150 -381q0 -223 108 -345q40 -46 105 -74.5t127 -28.5q111 0 213 81l166 -187q-147 -120 -319 -140z" />
    <glyph glyph-name="Egrave" unicode="&#xc8;" horiz-adv-x="1030" 
d="M407 1119v-272h407v-246h-407v-355h497v-246h-743v1365h740v-246h-494zM289 1743h271l145 -261h-228z" />
    <glyph glyph-name="Eacute" unicode="&#xc9;" horiz-adv-x="1030" 
d="M407 1119v-272h407v-246h-407v-355h497v-246h-743v1365h740v-246h-494zM838 1743l-187 -261h-228l145 261h270z" />
    <glyph glyph-name="Ecircumflex" unicode="&#xca;" horiz-adv-x="1030" 
d="M407 1119v-272h407v-246h-407v-355h497v-246h-743v1365h740v-246h-494zM702 1743l155 -262h-265l-59 140l-60 -140h-265l155 262h339z" />
    <glyph glyph-name="Edieresis" unicode="&#xcb;" horiz-adv-x="1030" 
d="M406 1119v-272h408v-246h-408v-355h498v-246h-744v1365h741v-246h-495zM312 1762q60 0 103.5 -44t43.5 -106q0 -61 -44 -105t-105 -44q-63 0 -106.5 44t-43.5 107q0 61 44.5 104.5t107.5 43.5zM760 1762q59 0 101.5 -45t42.5 -107q0 -69 -49 -113q-43 -39 -100 -39
q-63 0 -106.5 44t-43.5 107q0 65 50 110q48 43 105 43z" />
    <glyph glyph-name="Igrave" unicode="&#xcc;" horiz-adv-x="571" 
d="M408 1365v-1365h-246v1365h246zM-5 1743h271l144 -261h-228z" />
    <glyph glyph-name="Iacute" unicode="&#xcd;" horiz-adv-x="571" 
d="M409 1365v-1365h-246v1365h246zM599 1743l-187 -261h-228l145 261h270z" />
    <glyph glyph-name="Icircumflex" unicode="&#xce;" horiz-adv-x="571" 
d="M409 1365v-1365h-246v1365h246zM455 1743l155 -262h-265l-59 140h-1l-59 -140h-265l155 262h339z" />
    <glyph glyph-name="Idieresis" unicode="&#xcf;" horiz-adv-x="571" 
d="M409 1365v-1365h-246v1365h246zM101 1762q60 0 103.5 -44t43.5 -106q0 -61 -44 -105t-105 -44q-63 0 -106.5 44t-43.5 107q0 61 44.5 104.5t107.5 43.5zM480 1762q58 0 100.5 -45t42.5 -107q0 -69 -49 -113q-43 -39 -100 -39q-63 0 -106.5 44t-43.5 107q0 65 50 110
q48 43 106 43z" />
    <glyph glyph-name="Eth" unicode="&#xd0;" horiz-adv-x="1303" 
d="M162 585h-89v222h89v558h463q138 0 222 -36q168 -71 258 -244q98 -187 98 -409q0 -221 -99 -403q-87 -160 -250 -235q-83 -38 -205 -38h-487v585zM408 585v-339h237q135 0 219 111q42 56 67.5 144.5t25.5 178.5q0 149 -64 274q-47 92 -107 128.5t-164 36.5h-214v-312h192
v-222h-192z" />
    <glyph glyph-name="Ntilde" unicode="&#xd1;" horiz-adv-x="1378" 
d="M1215 1365v-1365h-274l-534 904v-904h-246v1365h270l538 -922v922h246zM849 1728h179q-12 -240 -183 -240q-63 0 -140 50q-62 41 -92 41q-53 0 -58 -65h-184q7 114 43 167q51 77 149 77q69 0 154 -46q53 -29 81 -29q40 0 51 45z" />
    <glyph glyph-name="Ograve" unicode="&#xd2;" horiz-adv-x="1403" 
d="M696 1379q242 0 412 -170q187 -188 187 -526t-187 -527q-169 -170 -411 -170q-241 0 -406 170q-99 103 -140 231q-43 135 -43 306q0 331 183 516q169 170 405 170zM696 1131q-68 0 -132 -29.5t-107 -80.5q-96 -115 -96 -332q0 -229 96 -345q43 -51 107 -80.5t133 -29.5
q68 0 134 30t111 80q100 114 100 339q0 223 -100 338q-44 50 -111 80t-135 30zM427 1743h271l145 -261h-229z" />
    <glyph glyph-name="Oacute" unicode="&#xd3;" horiz-adv-x="1403" 
d="M696 1379q242 0 412 -170q187 -188 187 -526t-187 -527q-169 -170 -411 -170q-241 0 -406 170q-99 103 -140 231q-43 135 -43 306q0 331 183 516q169 170 405 170zM696 1131q-68 0 -132 -29.5t-107 -80.5q-96 -115 -96 -332q0 -229 96 -345q43 -51 107 -80.5t133 -29.5
q68 0 134 30t111 80q100 114 100 339q0 223 -100 338q-44 50 -111 80t-135 30zM992 1743l-187 -261h-229l145 261h271z" />
    <glyph glyph-name="Ocircumflex" unicode="&#xd4;" horiz-adv-x="1403" 
d="M696 1379q242 0 412 -170q187 -188 187 -526t-187 -527q-169 -170 -411 -170q-241 0 -406 170q-99 103 -140 231q-43 135 -43 306q0 331 183 516q169 170 405 170zM696 1131q-68 0 -132 -29.5t-107 -80.5q-96 -115 -96 -332q0 -229 96 -345q43 -51 107 -80.5t133 -29.5
q68 0 134 30t111 80q100 114 100 339q0 223 -100 338q-44 50 -111 80t-135 30zM871 1743l155 -262h-265l-59 140l-60 -140h-265l155 262h339z" />
    <glyph glyph-name="Otilde" unicode="&#xd5;" horiz-adv-x="1403" 
d="M696 1379q242 0 412 -170q187 -188 187 -526t-187 -527q-169 -170 -411 -170q-241 0 -406 170q-99 103 -140 231q-43 135 -43 306q0 331 183 516q169 170 405 170zM696 1131q-68 0 -132 -29.5t-107 -80.5q-96 -115 -96 -332q0 -229 96 -345q43 -51 107 -80.5t133 -29.5
q68 0 134 30t111 80q100 114 100 339q0 223 -100 338q-44 50 -111 80t-135 30zM866 1728h180q-12 -240 -184 -240q-62 0 -139 50q-63 41 -93 41q-53 0 -58 -65h-183q7 114 42 167q52 77 150 77q69 0 153 -46q54 -29 81 -29q40 0 51 45z" />
    <glyph glyph-name="Odieresis" unicode="&#xd6;" horiz-adv-x="1403" 
d="M696 1379q242 0 412 -170q187 -188 187 -526t-187 -527q-169 -170 -411 -170q-241 0 -406 170q-99 103 -140 231q-43 135 -43 306q0 331 183 516q169 170 405 170zM696 1131q-68 0 -132 -29.5t-107 -80.5q-96 -115 -96 -332q0 -229 96 -345q43 -51 107 -80.5t133 -29.5
q68 0 134 30t111 80q100 114 100 339q0 223 -100 338q-44 50 -111 80t-135 30zM482 1762q60 0 103.5 -44t43.5 -106q0 -61 -44 -105t-105 -44q-63 0 -106.5 44t-43.5 107q0 61 44.5 104.5t107.5 43.5zM930 1762q58 0 100.5 -45t42.5 -107q0 -69 -49 -113q-43 -39 -100 -39
q-63 0 -106.5 44t-43.5 107q0 64 50 110q48 43 106 43z" />
    <glyph glyph-name="multiply" unicode="&#xd7;" horiz-adv-x="917" 
d="M568 633l254 -254l-109 -109l-254 258l-255 -258l-108 109l254 254l-254 254l108 108l255 -257l254 257l109 -108z" />
    <glyph glyph-name="Oslash" unicode="&#xd8;" horiz-adv-x="1403" 
d="M1068 1245q227 -190 227 -562q0 -338 -187 -527q-169 -170 -414 -170q-74 0 -146 19l-36 -88l-185 81l39 94q-258 186 -258 590q0 338 183 527q165 170 405 170q97 0 190 -31l27 63l189 -86zM963 994l-317 -755q27 -5 51 -5q68 0 134 30t111 80q100 114 100 336
q0 204 -79 314zM466 334l324 782q-45 15 -92 15q-69 0 -133.5 -29.5t-107.5 -80.5q-96 -116 -96 -338q0 -231 105 -349z" />
    <glyph glyph-name="Ugrave" unicode="&#xd9;" horiz-adv-x="1316" 
d="M162 1365h246v-853q0 -123 64 -195q77 -85 186 -85q120 0 198 99q52 68 52 181v853h246v-873q0 -185 -103 -315q-75 -94 -183 -145q-100 -46 -210 -46q-154 0 -282 88q-214 148 -214 418v873zM403 1743h271l144 -261h-228z" />
    <glyph glyph-name="Uacute" unicode="&#xda;" horiz-adv-x="1316" 
d="M162 1365h246v-853q0 -123 64 -195q77 -85 186 -85q120 0 198 99q52 68 52 181v853h246v-873q0 -185 -103 -315q-75 -94 -183 -145q-100 -46 -210 -46q-154 0 -282 88q-214 148 -214 418v873zM956 1743l-187 -261h-228l145 261h270z" />
    <glyph glyph-name="Ucircumflex" unicode="&#xdb;" horiz-adv-x="1316" 
d="M162 1365h246v-853q0 -123 64 -195q77 -85 186 -85q120 0 198 99q52 68 52 181v853h246v-873q0 -185 -103 -315q-75 -94 -183 -145q-100 -46 -210 -46q-154 0 -282 88q-214 148 -214 418v873zM828 1743l155 -262h-265l-60 140l-60 -140h-265l155 262h340z" />
    <glyph glyph-name="Udieresis" unicode="&#xdc;" horiz-adv-x="1316" 
d="M162 1365h246v-853q0 -123 64 -195q77 -85 186 -85q120 0 198 99q52 68 52 181v853h246v-873q0 -185 -103 -315q-75 -94 -183 -145q-100 -46 -210 -46q-154 0 -282 88q-214 148 -214 418v873zM438 1762q60 0 103.5 -44t43.5 -106q0 -61 -44 -105t-105 -44
q-63 0 -106.5 44t-43.5 107q0 62 44.5 105t107.5 43zM886 1762q59 0 101.5 -45t42.5 -107q0 -69 -49 -113q-43 -39 -100 -39q-63 0 -106.5 44t-43.5 107q0 65 50 110q48 43 105 43z" />
    <glyph glyph-name="Yacute" unicode="&#xdd;" horiz-adv-x="1192" 
d="M1125 1365l-403 -734v-631h-246v631l-410 734h281l249 -450l247 450h282zM901 1743l-188 -261h-228l145 261h271z" />
    <glyph glyph-name="Thorn" unicode="&#xde;" horiz-adv-x="1167" 
d="M407 314v-314h-246v1365h246v-245h212q118 0 184 -17.5t126 -64.5q74 -58 116 -144.5t42 -181.5q0 -126 -71 -230q-63 -91 -148.5 -129.5t-227.5 -38.5h-233zM407 560h229q105 0 144 29q60 45 60 122q0 95 -77 139q-43 24 -133 24h-223v-314z" />
    <glyph glyph-name="germandbls" unicode="&#xdf;" horiz-adv-x="1219" 
d="M543 -3v249h78q152 0 213 20q29 9 48.5 34.5t19.5 53.5q0 37 -30 71t-141 124q-98 80 -120 111t-22 91q0 45 14 70t69 81q48 48 66 79.5t18 69.5q0 49 -32 77q-46 39 -130 39q-114 0 -155 -72q-26 -44 -26 -156v-939h-247v980q0 156 37 225q101 188 393 188
q200 0 317 -89q113 -86 113 -229q0 -76 -25.5 -128t-97.5 -123q-38 -38 -38 -64q0 -34 79 -90q119 -85 169.5 -162.5t50.5 -175.5q0 -114 -60 -197q-100 -140 -376 -140l-100 1z" />
    <glyph glyph-name="agrave" unicode="&#xe0;" 
d="M1055 980v-980h-243v66q-116 -90 -250 -90q-116 0 -218 64q-105 65 -159 187q-53 120 -53 265q0 255 156 398q116 107 277 107q71 0 126.5 -19.5t120.5 -67.5v70h243zM812 408v163q0 84 -56 140.5t-140 56.5q-92 0 -149 -65q-72 -83 -72 -217q0 -131 66 -205
q59 -66 151 -66q81 0 140.5 57t59.5 136zM422 1347h257l145 -261h-215z" />
    <glyph glyph-name="aacute" unicode="&#xe1;" 
d="M1055 980v-980h-243v66q-116 -90 -250 -90q-116 0 -218 64q-105 65 -159 187q-53 120 -53 265q0 255 156 398q116 107 277 107q71 0 126.5 -19.5t120.5 -67.5v70h243zM812 408v163q0 84 -56 140.5t-140 56.5q-92 0 -149 -65q-72 -83 -72 -217q0 -131 66 -205
q59 -66 151 -66q81 0 140.5 57t59.5 136zM948 1347l-187 -261h-215l145 261h257z" />
    <glyph glyph-name="acircumflex" unicode="&#xe2;" 
d="M1055 980v-980h-243v66q-116 -90 -250 -90q-116 0 -218 64q-105 65 -159 187q-53 120 -53 265q0 255 156 398q116 107 277 107q71 0 126.5 -19.5t120.5 -67.5v70h243zM812 408v163q0 84 -56 140.5t-140 56.5q-92 0 -149 -65q-72 -83 -72 -217q0 -131 66 -205
q59 -66 151 -66q81 0 140.5 57t59.5 136zM810 1347l169 -262h-252l-59 140l-60 -140h-251l168 262h285z" />
    <glyph glyph-name="atilde" unicode="&#xe3;" 
d="M1055 980v-980h-243v66q-116 -90 -250 -90q-116 0 -218 64q-105 65 -159 187q-53 120 -53 265q0 255 156 398q116 107 277 107q71 0 126.5 -19.5t120.5 -67.5v70h243zM812 408v163q0 84 -56 140.5t-140 56.5q-92 0 -149 -65q-72 -83 -72 -217q0 -131 66 -205
q59 -66 151 -66q81 0 140.5 57t59.5 136zM799 1317h172q-11 -230 -176 -230q-60 0 -134 47q-60 39 -89 39q-51 0 -55 -61h-176q7 109 41 160q49 73 142 73q67 0 148 -43q52 -28 78 -28q38 0 49 43z" />
    <glyph glyph-name="adieresis" unicode="&#xe4;" 
d="M1055 980v-980h-243v66q-116 -90 -250 -90q-116 0 -218 64q-105 65 -159 187q-53 120 -53 265q0 255 156 398q116 107 277 107q71 0 126.5 -19.5t120.5 -67.5v70h243zM812 408v163q0 84 -56 140.5t-140 56.5q-92 0 -149 -65q-72 -83 -72 -217q0 -131 66 -205
q59 -66 151 -66q81 0 140.5 57t59.5 136zM396 1372q59 0 102.5 -44t43.5 -105q0 -62 -43.5 -105.5t-105.5 -43.5t-105.5 44t-43.5 106t44 105t108 43zM912 1372q60 0 103.5 -44t43.5 -105t-43.5 -105t-105.5 -44t-105.5 44t-43.5 106t44 105t107 43z" />
    <glyph glyph-name="aring" unicode="&#xe5;" 
d="M1055 980v-980h-243v66q-116 -90 -250 -90q-116 0 -218 64q-105 65 -159 187q-53 120 -53 265q0 255 156 398q116 107 277 107q71 0 126.5 -19.5t120.5 -67.5v70h243zM812 408v163q0 84 -56 140.5t-140 56.5q-92 0 -149 -65q-72 -83 -72 -217q0 -131 66 -205
q59 -66 151 -66q81 0 140.5 57t59.5 136zM662 1319q-29 0 -49.5 -19.5t-20.5 -48.5t20 -49t49 -20q28 0 48 20t20 49q0 27 -20 47.5t-47 20.5zM663 1455q87 0 148 -67q52 -58 52 -136q0 -90 -67 -151q-58 -52 -136 -52q-90 0 -151 67q-52 58 -52 138q0 87 67 149
q57 52 139 52z" />
    <glyph glyph-name="ae" unicode="&#xe6;" horiz-adv-x="1884" 
d="M1055 930q106 64 237 64q106 0 201.5 -44t160.5 -124q39 -49 70.5 -132.5t31.5 -140.5v-118h-690q17 -79 60 -128q68 -77 176 -77q58 0 103.5 16t116.5 60l140 -193q-166 -123 -374 -123q-127 0 -233 65v-55h-243v66q-116 -90 -250 -90q-116 0 -218 64q-105 65 -159 187
q-53 120 -53 265q0 256 156 398q116 107 277 107q71 0 126.5 -19.5t120.5 -67.5v70h243v-50zM812 408v163q0 86 -61 145q-54 52 -135 52q-92 0 -149 -65q-72 -83 -72 -217q0 -131 66 -205q59 -66 151 -66q82 0 141 57t59 136zM1499 595q-20 83 -64 122q-61 55 -144 55
q-80 0 -136 -46t-79 -131h423z" />
    <glyph glyph-name="ccedilla" unicode="&#xe7;" horiz-adv-x="1018" 
d="M643 -12v-35q126 -11 126 -130q0 -80 -60 -128t-160 -48q-57 0 -130 18l45 121q39 -9 65 -9q33 0 53 15.5t20 41.5q0 21 -23 36.5t-56 15.5q-4 0 -14 -1v113q-87 19 -163 71q-103 70 -161 186q-54 110 -54 229q0 141 73 276q69 128 197 189q99 48 210 48q77 0 139 -20
t140 -69l-145 -202q-60 45 -134 45q-108 0 -177 -86q-60 -76 -60 -177q0 -117 72 -193q67 -69 167 -69q58 0 132 43l145 -190q-107 -80 -247 -91z" />
    <glyph glyph-name="egrave" unicode="&#xe8;" horiz-adv-x="1179" 
d="M1051 435h-690q17 -79 60 -128q69 -77 176 -77q58 0 103.5 16t116.5 60l140 -193q-166 -123 -376 -123q-189 0 -324 139q-68 70 -106.5 166.5t-38.5 197.5q0 196 125 340q138 161 349 161q107 0 202 -44t161 -124q39 -49 70.5 -132.5t31.5 -140.5v-118zM794 595
q-20 83 -64 122q-61 55 -144 55q-80 0 -136 -46t-79 -131h423zM348 1347h257l145 -261h-215z" />
    <glyph glyph-name="eacute" unicode="&#xe9;" horiz-adv-x="1179" 
d="M1051 435h-690q17 -79 60 -128q69 -77 176 -77q58 0 103.5 16t116.5 60l140 -193q-166 -123 -376 -123q-189 0 -324 139q-68 70 -106.5 166.5t-38.5 197.5q0 196 125 340q138 161 349 161q107 0 202 -44t161 -124q39 -49 70.5 -132.5t31.5 -140.5v-118zM794 595
q-20 83 -64 122q-61 55 -144 55q-80 0 -136 -46t-79 -131h423zM885 1347l-187 -261h-214l145 261h256z" />
    <glyph glyph-name="ecircumflex" unicode="&#xea;" horiz-adv-x="1179" 
d="M1051 435h-690q17 -79 60 -128q69 -77 176 -77q58 0 103.5 16t116.5 60l140 -193q-166 -123 -376 -123q-189 0 -324 139q-68 70 -106.5 166.5t-38.5 197.5q0 196 125 340q138 161 349 161q107 0 202 -44t161 -124q39 -49 70.5 -132.5t31.5 -140.5v-118zM794 595
q-20 83 -64 122q-61 55 -144 55q-80 0 -136 -46t-79 -131h423zM751 1347l169 -262h-251l-60 140l-60 -140h-251l168 262h285z" />
    <glyph glyph-name="edieresis" unicode="&#xeb;" horiz-adv-x="1179" 
d="M1051 435h-690q17 -79 60 -128q69 -77 176 -77q58 0 103.5 16t116.5 60l140 -193q-166 -123 -376 -123q-189 0 -324 139q-68 70 -106.5 166.5t-38.5 197.5q0 196 125 340q138 161 349 161q107 0 202 -44t161 -124q39 -49 70.5 -132.5t31.5 -140.5v-118zM794 595
q-20 83 -64 122q-61 55 -144 55q-80 0 -136 -46t-79 -131h423zM348 1372q60 0 103.5 -44t43.5 -105q0 -62 -43.5 -105.5t-105.5 -43.5t-105.5 43.5t-43.5 106.5q0 62 44 105t107 43zM865 1372q60 0 103.5 -44t43.5 -105q0 -62 -43.5 -105.5t-105.5 -43.5t-105.5 44
t-43.5 106t44 105t107 43z" />
    <glyph glyph-name="igrave" unicode="&#xec;" horiz-adv-x="571" 
d="M411 980v-980h-243v980h243zM1 1347h257l145 -261h-215z" />
    <glyph glyph-name="iacute" unicode="&#xed;" horiz-adv-x="571" 
d="M411 980v-980h-243v980h243zM586 1347l-188 -261h-214l145 261h257z" />
    <glyph glyph-name="icircumflex" unicode="&#xee;" horiz-adv-x="571" 
d="M411 980v-980h-243v980h243zM432 1347l169 -262h-251l-60 140l-60 -140h-251l168 262h285z" />
    <glyph glyph-name="idieresis" unicode="&#xef;" horiz-adv-x="571" 
d="M411 980v-980h-243v980h243zM107 1372q60 0 103.5 -44t43.5 -105q0 -62 -43.5 -105.5t-105.5 -43.5t-105.5 44t-43.5 106t44 105t107 43zM476 1372q60 0 103.5 -44t43.5 -105t-43.5 -105t-105.5 -44t-105.5 44t-43.5 106t44 105t107 43z" />
    <glyph glyph-name="eth" unicode="&#xf0;" horiz-adv-x="1257" 
d="M543 1173l-5 5q-32 31 -73 68l202 119q58 -52 106 -100l201 80l74 -193l-139 -56q63 -91 105 -174q132 -257 132 -483q0 -93 -39 -178t-107 -144q-150 -127 -376 -127q-236 0 -386 143q-127 121 -127 296q0 148 89 261q74 95 210 146q106 39 215 39q53 0 135 -14
q-42 92 -78 144l-172 -69l-73 194zM627 641q-115 0 -198 -55q-82 -54 -82 -154q0 -74 56 -126q84 -77 224 -77q122 0 203 62q73 56 73 146q0 103 -96 158q-81 46 -180 46z" />
    <glyph glyph-name="ntilde" unicode="&#xf1;" horiz-adv-x="1117" 
d="M403 980v-41q104 55 201 55q151 0 252 -104t101 -258v-632h-243v570q0 92 -47 139q-47 45 -110 45q-67 0 -113 -56q-41 -48 -41 -96v-602h-243v980h243zM702 1317h172q-11 -230 -176 -230q-60 0 -134 47q-60 39 -89 39q-51 0 -55 -61h-176q7 109 41 160q49 73 142 73
q67 0 148 -43q52 -28 78 -28q38 0 49 43z" />
    <glyph glyph-name="ograve" unicode="&#xf2;" horiz-adv-x="1217" 
d="M609 997q200 0 339 -145q66 -69 103 -165t37 -197t-37 -196t-103 -164q-138 -144 -339 -144q-202 0 -340 144q-140 147 -140 366q0 97 38 192.5t102 163.5q139 145 340 145zM609 750q-99 0 -165 -71q-69 -75 -69 -186q0 -117 69 -193q65 -71 165 -71q99 0 164 71
q69 76 69 190q0 112 -69 189q-64 71 -164 71zM355 1347h257l145 -261h-214z" />
    <glyph glyph-name="oacute" unicode="&#xf3;" horiz-adv-x="1217" 
d="M609 997q200 0 339 -145q66 -69 103 -165t37 -197t-37 -196t-103 -164q-138 -144 -339 -144q-202 0 -340 144q-140 147 -140 366q0 97 38 192.5t102 163.5q139 145 340 145zM609 750q-99 0 -165 -71q-69 -75 -69 -186q0 -117 69 -193q65 -71 165 -71q99 0 164 71
q69 76 69 190q0 112 -69 189q-64 71 -164 71zM897 1347l-187 -261h-215l145 261h257z" />
    <glyph glyph-name="ocircumflex" unicode="&#xf4;" horiz-adv-x="1217" 
d="M609 997q200 0 339 -145q66 -69 103 -165t37 -197t-37 -196t-103 -164q-138 -144 -339 -144q-202 0 -340 144q-140 147 -140 366q0 97 38 192.5t102 163.5q139 145 340 145zM609 750q-99 0 -165 -71q-69 -75 -69 -186q0 -117 69 -193q65 -71 165 -71q99 0 164 71
q69 76 69 190q0 112 -69 189q-64 71 -164 71zM751 1347l168 -262h-251l-59 140l-60 -140h-251l168 262h285z" />
    <glyph glyph-name="otilde" unicode="&#xf5;" horiz-adv-x="1217" 
d="M609 997q200 0 339 -145q66 -69 103 -165t37 -197t-37 -196t-103 -164q-138 -144 -339 -144q-202 0 -340 144q-140 147 -140 366q0 97 38 192.5t102 163.5q139 145 340 145zM609 750q-99 0 -165 -71q-69 -75 -69 -186q0 -117 69 -193q65 -71 165 -71q99 0 164 71
q69 76 69 190q0 112 -69 189q-64 71 -164 71zM751 1317h172q-11 -230 -175 -230q-61 0 -134 47q-60 39 -89 39q-51 0 -55 -61h-176q7 109 40 160q50 73 143 73q67 0 148 -43q52 -28 78 -28q38 0 48 43z" />
    <glyph glyph-name="odieresis" unicode="&#xf6;" horiz-adv-x="1217" 
d="M609 997q200 0 339 -145q66 -69 103 -165t37 -197t-37 -196t-103 -164q-138 -144 -339 -144q-202 0 -340 144q-140 147 -140 366q0 97 38 192.5t102 163.5q139 145 340 145zM609 750q-99 0 -165 -71q-69 -75 -69 -186q0 -117 69 -193q65 -71 165 -71q99 0 164 71
q69 76 69 190q0 112 -69 189q-64 71 -164 71zM353 1372q59 0 102.5 -44t43.5 -105q0 -62 -43.5 -105.5t-105.5 -43.5t-105.5 44t-43.5 106t44 105t108 43zM869 1372q60 0 103.5 -44t43.5 -105t-43.5 -105t-105.5 -44t-105.5 44t-43.5 106t44 105t107 43z" />
    <glyph glyph-name="divide" unicode="&#xf7;" horiz-adv-x="1035" 
d="M953 725v-154h-871v154h871zM519 465q55 0 94 -40t39 -95q0 -56 -39.5 -95.5t-95.5 -39.5t-95.5 39.5t-39.5 96.5q0 56 40 95t97 39zM513 1101q55 0 94 -40t39 -95q0 -56 -39.5 -95.5t-95.5 -39.5t-95.5 39.5t-39.5 96.5q0 56 40 95t97 39z" />
    <glyph glyph-name="oslash" unicode="&#xf8;" horiz-adv-x="1217" 
d="M797 958l67 103l178 -117l-75 -113q121 -152 121 -340q0 -214 -140 -361q-138 -144 -339 -144q-95 0 -180 35l-71 -107l-173 112l75 114q-131 150 -131 350q0 102 37 197t103 165q138 145 340 145q94 0 188 -39zM657 745q-25 5 -48 5q-100 0 -165 -71q-69 -75 -69 -189
q0 -66 29 -129zM818 607l-249 -374q21 -4 38 -4q101 0 166 71q69 76 69 189q0 62 -24 118z" />
    <glyph glyph-name="ugrave" unicode="&#xf9;" horiz-adv-x="1117" 
d="M951 0h-243v48q-93 -62 -201 -62q-151 0 -252 104t-101 258v632h243v-570q0 -90 47 -136q47 -44 110 -44q67 0 113 54q41 48 41 94v602h243v-980zM315 1347h257l145 -261h-215z" />
    <glyph glyph-name="uacute" unicode="&#xfa;" horiz-adv-x="1117" 
d="M951 0h-243v48q-93 -62 -201 -62q-151 0 -252 104t-101 258v632h243v-570q0 -90 47 -136q47 -44 110 -44q67 0 113 54q41 48 41 94v602h243v-980zM861 1347l-188 -261h-214l145 261h257z" />
    <glyph glyph-name="ucircumflex" unicode="&#xfb;" horiz-adv-x="1117" 
d="M951 0h-243v48q-93 -62 -201 -62q-151 0 -252 104t-101 258v632h243v-570q0 -90 47 -136q47 -44 110 -44q67 0 113 54q41 48 41 94v602h243v-980zM699 1347l169 -262h-252l-59 140l-60 -140h-251l168 262h285z" />
    <glyph glyph-name="udieresis" unicode="&#xfc;" horiz-adv-x="1117" 
d="M952 0h-243v48q-93 -62 -201 -62q-151 0 -252.5 103.5t-101.5 258.5v632h243v-570q0 -91 48 -136q46 -44 110 -44q67 0 113 54q41 48 41 94v602h243v-980zM296 1372q60 0 103.5 -44t43.5 -105q0 -62 -43.5 -105.5t-105.5 -43.5t-105.5 44t-43.5 106t44 105t107 43z
M813 1372q60 0 103.5 -44t43.5 -105t-43.5 -105t-105.5 -44t-105.5 44t-43.5 106t44 105t107 43z" />
    <glyph glyph-name="yacute" unicode="&#xfd;" horiz-adv-x="1179" 
d="M1080 980l-494 -1345h-263l135 362l-358 983h259l232 -628l232 628h257zM894 1347l-188 -261h-214l145 261h257z" />
    <glyph glyph-name="thorn" unicode="&#xfe;" 
d="M162 1348h243v-448q60 50 118.5 72t131.5 22q84 0 163.5 -35.5t134.5 -98.5q58 -65 90.5 -163t32.5 -209q0 -252 -153 -396q-112 -106 -272 -106q-127 0 -246 84v-439h-243v1717zM405 572v-170q0 -72 59 -128t135 -56q94 0 151 64q73 80 73 211q0 130 -69 206
q-60 66 -149 66q-81 0 -140.5 -57t-59.5 -136z" />
    <glyph glyph-name="ydieresis" unicode="&#xff;" horiz-adv-x="1179" 
d="M1080 980l-494 -1345h-263l135 362l-358 983h259l232 -628l232 628h257zM333 1372q60 0 103.5 -44t43.5 -105q0 -62 -43.5 -105.5t-105.5 -43.5t-105.5 43.5t-43.5 106.5q0 62 44 105t107 43zM850 1372q60 0 103.5 -44t43.5 -105t-43.5 -105t-105.5 -44t-105.5 44
t-43.5 106t44 105t107 43z" />
    <glyph glyph-name="dotlessi" unicode="&#x131;" horiz-adv-x="571" 
d="M411 980v-980h-243v980h243z" />
    <glyph glyph-name="OE" unicode="&#x152;" horiz-adv-x="1920" 
d="M1051 106q-155 -120 -355 -120q-240 0 -405 170q-183 189 -183 527q0 337 183 525q165 171 405 171q201 0 355 -120v106h740v-246h-494v-272h407v-246h-407v-355h497v-246h-743v106zM697 1130q-69 0 -132.5 -29.5t-106.5 -80.5q-97 -114 -97 -330q0 -230 97 -345
q42 -51 106.5 -80.5t132.5 -29.5t134.5 30t111.5 80q100 114 100 338t-100 337q-44 50 -111 80t-135 30z" />
    <glyph glyph-name="oe" unicode="&#x153;" horiz-adv-x="1909" 
d="M966 151q-142 -165 -357 -165q-202 0 -340 144q-140 147 -140 360q0 102 37 197t103 165q138 145 340 145q104 0 197.5 -43.5t159.5 -121.5q139 162 350 162q107 0 202 -44t161 -124q39 -49 70.5 -132.5t31.5 -140.5v-118h-690q17 -79 60 -128q69 -77 176 -77
q58 0 103.5 16t116.5 60l140 -193q-166 -123 -376 -123q-97 0 -189.5 43.5t-155.5 117.5zM1524 595q-20 83 -64 122q-61 55 -144 55q-80 0 -136 -46t-79 -131h423zM609 751q-99 0 -165 -71q-69 -75 -69 -187q0 -117 69 -193q65 -71 165 -71q99 0 164 71q69 76 69 190
q0 113 -69 190q-64 71 -164 71z" />
    <glyph glyph-name="circumflex" unicode="&#x2c6;" horiz-adv-x="895" 
d="M590 1347l169 -262h-251l-60 140l-60 -140h-251l168 262h285z" />
    <glyph glyph-name="ring" unicode="&#x2da;" horiz-adv-x="679" 
d="M342 1319q-29 0 -49.5 -19.5t-20.5 -48.5t20 -49t49 -20q28 0 48 20t20 49q0 28 -20 48t-47 20zM343 1455q87 0 148 -67q52 -58 52 -136q0 -90 -67 -151q-58 -52 -136 -52q-90 0 -151 67q-52 58 -52 138q0 87 67 149q58 52 139 52z" />
    <glyph glyph-name="tilde" unicode="&#x2dc;" horiz-adv-x="903" 
d="M595 1317h172q-11 -230 -176 -230q-60 0 -134 47q-60 39 -89 39q-51 0 -55 -61h-176q7 109 41 160q49 73 142 73q67 0 148 -43q52 -28 78 -28q38 0 49 43z" />
    <glyph glyph-name="uni2011" unicode="&#x2011;" horiz-adv-x="454" 
d="M455 597v-226h-455v226h455z" />
    <glyph glyph-name="figuredash" unicode="&#x2012;" horiz-adv-x="1117" 
d="M993 597v-226h-868v226h868z" />
    <glyph glyph-name="endash" unicode="&#x2013;" horiz-adv-x="1117" 
d="M993 597v-226h-868v226h868z" />
    <glyph glyph-name="emdash" unicode="&#x2014;" horiz-adv-x="1612" 
d="M1443 597v-226h-1275v226h1275z" />
    <glyph glyph-name="afii00208" unicode="&#x2015;" horiz-adv-x="1612" 
d="M1443 597v-226h-1275v226h1275z" />
    <glyph glyph-name="quoteleft" unicode="&#x2018;" horiz-adv-x="508" 
d="M398 1365l-47 -339h-242l47 339h242z" />
    <glyph glyph-name="quoteright" unicode="&#x2019;" horiz-adv-x="508" 
d="M398 1365l-47 -339h-242l47 339h242z" />
    <glyph glyph-name="quotesinglbase" unicode="&#x201a;" horiz-adv-x="508" 
d="M398 160l-47 -339h-242l47 339h242z" />
    <glyph glyph-name="quotedblleft" unicode="&#x201c;" horiz-adv-x="839" 
d="M398 1365l-47 -339h-242l47 339h242zM729 1365l-46 -339h-243l47 339h242z" />
    <glyph glyph-name="quotedblright" unicode="&#x201d;" horiz-adv-x="839" 
d="M398 1365l-47 -339h-242l47 339h242zM729 1365l-46 -339h-243l47 339h242z" />
    <glyph glyph-name="quotedblbase" unicode="&#x201e;" horiz-adv-x="839" 
d="M398 160l-47 -339h-242l47 339h242zM729 160l-46 -339h-243l47 339h242z" />
    <glyph glyph-name="dagger" unicode="&#x2020;" horiz-adv-x="1043" 
d="M399 1053v312h246v-312h310v-245h-310v-1042h-246v1042h-311v245h311z" />
    <glyph glyph-name="daggerdbl" unicode="&#x2021;" horiz-adv-x="1043" 
d="M399 323v485h-311v245h311v312h246v-312h310v-245h-310v-485h310v-245h-310v-312h-246v312h-311v245h311z" />
    <glyph glyph-name="bullet" unicode="&#x2022;" horiz-adv-x="1393" 
d="M701 983q120 0 205 -95q72 -81 72 -191q0 -127 -93 -212q-80 -74 -188 -74q-126 0 -210 95q-72 81 -72 193q0 124 93 210q80 74 193 74z" />
    <glyph glyph-name="ellipsis" unicode="&#x2026;" horiz-adv-x="1435" 
d="M228 302q64 0 110 -46.5t46 -111.5q0 -71 -52 -117q-46 -41 -106 -41q-66 0 -112 46.5t-46 112.5t47 111.5t113 45.5zM1211 302q64 0 110 -46.5t46 -111.5q0 -71 -52 -117q-46 -41 -106 -41q-66 0 -112 46.5t-46 112.5t47 111.5t113 45.5zM720 302q64 0 110 -46.5
t46 -111.5q0 -71 -52 -117q-46 -41 -106 -41q-66 0 -112 46.5t-46 112.5t47 111.5t113 45.5z" />
    <glyph glyph-name="perthousand" unicode="&#x2030;" horiz-adv-x="2716" 
d="M1240 1374l-414 -1374h-161l415 1374h160zM1471 827q67 0 132.5 -28.5t112.5 -77.5q105 -111 105 -312q0 -199 -105 -311q-101 -106 -249 -106t-249 106q-105 112 -105 310q0 203 105 313q102 106 253 106zM1467 679q-95 0 -151 -72t-56 -194q0 -136 62 -209
q54 -64 145 -64q96 0 151.5 72.5t55.5 196.5q0 133 -62 206q-55 64 -145 64zM426 1377q143 0 244 -106q105 -111 105 -312q0 -199 -105 -311q-101 -106 -248 -106q-148 0 -249 106q-105 112 -105 310q0 202 105 313q102 106 253 106zM422 1229q-96 0 -151.5 -71.5
t-55.5 -193.5q0 -137 61 -210q55 -64 146 -64q96 0 151 72.5t55 197.5q0 132 -61 204q-55 65 -145 65zM2298 827q67 0 132.5 -28.5t112.5 -77.5q105 -111 105 -312q0 -199 -105 -311q-101 -106 -249 -106t-249 106q-105 112 -105 310q0 203 105 313q102 106 253 106z
M2294 679q-95 0 -151 -71.5t-56 -194.5q0 -136 61 -209q55 -64 146 -64q96 0 151.5 72t55.5 197q0 134 -62 206q-55 64 -145 64z" />
    <glyph glyph-name="guilsinglleft" unicode="&#x2039;" horiz-adv-x="462" 
d="M203 826h177l-106 -340l106 -339h-177l-121 339z" />
    <glyph glyph-name="guilsinglright" unicode="&#x203a;" horiz-adv-x="462" 
d="M259 826l121 -340l-121 -339h-177l106 339l-106 340h177z" />
    <glyph glyph-name="uni203E" unicode="&#x203e;" horiz-adv-x="1051" 
d="M14 1735h1024v-164h-1024v164z" />
    <glyph glyph-name="glyph219" unicode="&#x2044;" horiz-adv-x="403" 
d="M464 1374l-360 -1374h-160l360 1374h160z" />
    <glyph glyph-name="Euro" unicode="&#x20ac;" horiz-adv-x="1077" 
d="M464 905h420l-88 -195h-368v-29q0 -33 4 -79h452l-88 -195h-308q21 -41 48 -70q43 -47 106.5 -74.5t128.5 -27.5q47 0 86.5 13.5t101.5 50.5v-280q-94 -33 -184 -33q-180 0 -334 109t-217 312h-224l88 195h98q-4 41 -4 101v7h-182l88 195h117q26 116 85 210
q87 135 227 205q118 59 256 59q75 0 135 -16t156 -63l-105 -232q-90 62 -189 62q-104 0 -184.5 -59.5t-121.5 -165.5z" />
    <glyph glyph-name="minus" unicode="&#x2212;" horiz-adv-x="1035" 
d="M953 725v-154h-871v154h871z" />
    <glyph glyph-name="fraction" unicode="&#x2215;" horiz-adv-x="403" 
d="M464 1374l-360 -1374h-160l360 1374h160z" />
    </font>
</defs>
</svg>
