<svg xmlns="http://www.w3.org/2000/svg" viewBox="0 0 32 32" height="1000" width="1000">
  <path d="M10.6 24c-2.7.2-5 .9-6.9 2.1l-.4-.4c2.4-2.6 4.8-4.1 7.3-4.5 0-2.5-.7-4.4-2-5.6-1.2-1-2.4-1.7-3.6-1.9l-.2-.6L10.6 9c0-1.6-.3-2.8-.8-3.8-.4-.7-1.1-1-2-1-.7 0-1.5.3-2.4.8l-.5-.5C6.3 3 7.8 2.2 9.5 2.2c1.4 0 2.5.4 3.3 1.2.8.9 1.2 2 1.2 3.4l1.7-1.2v-3h.7v2.5l4.2-2.8c2.1 1.3 3.7 2.5 4.6 3.5 1.3 1.5 2 3.2 2 5.2v10.6l-5 4.4c-1.8-.9-3.7-1.5-5.7-1.7v6h-5.8V24zm0-9.5V10l-3.2 2.1c1.4.8 2.5 1.6 3.2 2.4zm5.1 15V6.4L14 7.6v21.9h1.7zm4.1-17h.6c1.2-.1 2.2-.6 3.2-1.4V11 10.7c0-1.4-.5-2.5-1.6-3.5-.7-.7-1.8-1.4-3.4-2.2l-.6-.3-1.8 1.1v5.3c1.3 1 2.4 1.4 3.6 1.4zm.3 3.3c1.1 0 2.3.3 3.5 1V12c-1.4.9-2.7 1.3-3.8 1.3-.9 0-2.1-.4-3.4-1.1v4.7c1.3-.8 2.6-1.1 3.7-1.1zm3.5 7.2v-5.2c-1.4-.8-2.6-1.2-3.6-1.2s-2.3.4-3.7 1.2v3.1c2.3.2 4.7.9 7.3 2.1z"/>
</svg>
